<?xml version="1.0" standalone="no"?><!DOCTYPE svg PUBLIC "-//W3C//DTD SVG 1.1//EN" "http://www.w3.org/Graphics/SVG/1.1/DTD/svg11.dtd"><svg t="1629517458747" class="icon" viewBox="0 0 1024 1024" version="1.1" xmlns="http://www.w3.org/2000/svg" p-id="2973" xmlns:xlink="http://www.w3.org/1999/xlink" width="200" height="200"><defs><style type="text/css"></style></defs><path d="M511.99831 0c282.766427 0 511.99831 229.231884 511.998311 511.99831s-229.231884 511.99831-511.998311 511.998311S0 794.764737 0 511.99831 229.231884 0 511.99831 0z" fill="#EFC75E" p-id="2974"></path><path d="M266.239121 961.215388V450.558513H3.799027A515.602779 515.602779 0 0 0 0 511.99831c0 193.699201 107.581085 362.238805 266.239121 449.217078zM757.757499 450.558513v510.656875C916.405296 874.237115 1023.996621 705.697511 1023.996621 511.99831c0-20.807611-1.392635-41.277304-3.799028-61.439797H757.757499z" fill="#F2F1EF" p-id="2975"></path><path d="M1009.04627 389.118716H757.757499a20.479932 20.479932 0 0 0-20.479932 20.479932v20.479933a20.479932 20.479932 0 0 0 20.479932 20.479932h262.440094a510.226796 510.226796 0 0 0-11.151323-61.439797zM266.239121 389.118716H14.950351a510.226796 510.226796 0 0 0-11.151324 61.439797H266.239121a20.479932 20.479932 0 0 0 20.479933-20.479932v-20.479933a20.479932 20.479932 0 0 0-20.479933-20.479932z m522.238277-102.399662v-20.479933a20.479932 20.479932 0 0 0-20.479932-20.479932H255.999155a20.479932 20.479932 0 0 0-20.479932 20.479932v20.479933a20.479932 20.479932 0 0 0 20.479932 20.479932h511.998311a20.479932 20.479932 0 0 0 20.479932-20.479932z" fill="#E2574C" p-id="2976"></path><path d="M757.757499 307.198986H266.239121v654.016402C339.198881 1001.212696 422.931084 1023.996621 511.99831 1023.996621s172.79943-22.783925 245.759189-62.781233V307.198986z" fill="#F2F1EF" p-id="2977"></path><path d="M368.638783 1003.506448a511.916391 511.916391 0 0 0 286.719054 0V819.197297H368.638783v184.309151z" fill="#C2C1BF" p-id="2978"></path><path d="M511.99831 174.079426c56.545093 0 102.399662 45.854569 102.399662 102.399662 0 56.555333-45.854569 102.399662-102.399662 102.399662s-102.399662-45.844329-102.399662-102.399662c0-56.545093 45.854569-102.399662 102.399662-102.399662z" fill="#CFCDCB" p-id="2979"></path><path d="M614.397972 276.479088c0-10.700765-1.658875-21.022651-4.700144-30.719899H414.298793a102.512302 102.512302 0 0 0 0 61.439797h195.399035c3.04127-9.697248 4.700144-20.019134 4.700144-30.719898z" fill="#CC5248" p-id="2980"></path><path d="M266.239121 307.198986h491.518378v30.719899H266.239121z" fill="#D9D8D7" p-id="2981"></path><path d="M430.22194 337.918885h163.562981a102.194863 102.194863 0 0 0 15.923147-30.719899H414.298793a101.969584 101.969584 0 0 0 15.923147 30.719899z" fill="#BAB8B6" p-id="2982"></path><path d="M368.638783 1003.506448c27.545509 8.017894 56.033095 13.823954 85.288679 17.121224L655.357837 819.197297H368.638783v184.309151z" fill="#CBCAC9" p-id="2983"></path><path d="M501.758344 839.677229h20.479933v184.319392h-20.479933V839.677229z" fill="#AEADAC" p-id="2984"></path><path d="M389.118716 839.677229h245.759189v30.719899H389.118716v-30.719899z" fill="#B6B5B5" p-id="2985"></path><path d="M542.718209 921.596959v40.959865h20.479932v-40.959865h-20.479932z m-81.91973 40.959865h20.479933v-40.959865h-20.479933v40.959865z" fill="#D7D6D4" p-id="2986"></path><path d="M511.99831 153.599493c56.545093 0 102.399662 45.854569 102.399662 102.399662 0 56.555333-45.854569 102.399662-102.399662 102.399662s-102.399662-45.844329-102.399662-102.399662c0-56.545093 45.854569-102.399662 102.399662-102.399662z" fill="#FFFFFF" p-id="2987"></path><path d="M552.958175 235.519223h-20.479932v-20.479933a10.239966 10.239966 0 0 0-10.239966-10.239966h-20.479933a10.239966 10.239966 0 0 0-10.239966 10.239966v20.479933h-20.479932a10.239966 10.239966 0 0 0-10.239967 10.239966v20.479932a10.239966 10.239966 0 0 0 10.239967 10.239967h20.479932v20.479932a10.239966 10.239966 0 0 0 10.239966 10.239966h20.479933a10.239966 10.239966 0 0 0 10.239966-10.239966v-20.479932h20.479932a10.239966 10.239966 0 0 0 10.239966-10.239967v-20.479932a10.239966 10.239966 0 0 0-10.239966-10.239966z" fill="#E2574C" p-id="2988"></path><path d="M327.678919 542.718209h81.919729V440.318547h-81.919729v102.399662z m143.359527 0h81.919729V440.318547h-81.919729v102.399662z m143.359526-102.399662v102.399662h81.91973V440.318547h-81.91973zM327.678919 706.557668h81.919729V604.158006h-81.919729v102.399662z m143.359527 0h81.919729V604.158006h-81.919729v102.399662z m143.359526 0h81.91973V604.158006h-81.91973v102.399662z" fill="#4ABEE5" p-id="2989"></path><path d="M327.678919 542.718209l81.919729-102.399662h-81.919729v102.399662z m0 163.839459l81.919729-102.399662h-81.919729v102.399662z m143.359527 0l81.919729-102.399662h-81.919729v102.399662z m143.359526 0l81.91973-102.399662h-81.91973v102.399662z m0-266.239121v102.399662l81.91973-102.399662h-81.91973zM471.038446 542.718209l81.919729-102.399662h-81.919729v102.399662z" fill="#6ECBEA" p-id="2990"></path><path d="M522.238277 952.316857V839.677229h-20.479933v133.119561z" fill="#B6B5B5" p-id="2991"></path><path d="M348.158851 997.05527c13.424596 4.526065 27.064231 8.570852 40.959865 11.991V829.437263h-40.959865v167.618007z" fill="#D6D6D5" p-id="2992"></path><path d="M501.758344 839.677229h20.479933v30.719899h-20.479933z" fill="#A3A3A3" p-id="2993"></path><path d="M757.757499 961.215388c4.208626-2.303992 8.325093-4.741104 12.462039-7.157736L798.717364 450.558513h-40.959865v510.656875z m-503.980416-7.157736c4.136946 2.416632 8.253413 4.863984 12.462038 7.157736V450.558513h-40.959864l28.497826 503.499139z" fill="#D9D8D7" p-id="2994"></path><path d="M839.677229 665.597804v71.679763h132.136524a508.086643 508.086643 0 0 0 28.712865-71.679763H839.677229z m0-143.359527v71.679763h177.714614a516.299096 516.299096 0 0 0 6.338539-71.679763H839.677229z m0 286.719053v71.679764h27.44311a514.578782 514.578782 0 0 0 61.828915-71.679764H839.677229zM6.604778 593.91804H184.319392v-71.679763H0.255999c0.481278 24.3404 2.580471 48.281441 6.348779 71.679763zM184.319392 665.597804H23.470003a509.274479 509.274479 0 0 0 28.702625 71.679763H184.319392v-71.679763z m0 143.359526H95.047366a513.974624 513.974624 0 0 0 61.839156 71.679764H184.319392v-71.679764z" fill="#4ABEE5" p-id="2995"></path><path d="M839.677229 522.238277v71.679763l184.063393-71.577364V522.238277z m0 143.359527v71.679763l157.285881-61.173558 3.563508-10.506205H839.677229z m89.272025 143.359526H839.677229v71.679764l44.595053-17.346503A512.03927 512.03927 0 0 0 928.949254 808.95733zM23.470003 665.597804a509.499759 509.499759 0 0 0 20.735931 54.48686L184.319392 665.597804H23.470003zM6.1747 591.521888L184.319392 522.238277H0.255999a514.558302 514.558302 0 0 0 5.918701 69.283611zM184.319392 808.95733H95.047366c6.522858 9.14429 13.260756 18.12474 20.357053 26.797992L184.319392 808.95733z" fill="#6ECBEA" p-id="2996"></path><path d="M634.877905 1009.04627a510.083437 510.083437 0 0 0 40.959865-11.991V829.437263h-40.959865v179.609007z" fill="#FBFBFA" p-id="2997"></path><path d="M655.357837 1003.506448a495.184286 495.184286 0 0 0 20.479933-6.451178V829.437263h-20.479933v174.069185z" fill="#D6D6D5" p-id="2998"></path><path d="M368.638783 1003.506448c6.778858 1.966074 13.588435 3.850227 20.479933 5.539822V829.437263h-20.479933v174.069185z" fill="#FBFBFA" p-id="2999"></path><path d="M348.158851 798.717364h327.678919a20.479932 20.479932 0 0 1 0 40.959865H348.158851a20.479932 20.479932 0 0 1 0-40.959865z" fill="#E2574C" p-id="3000"></path></svg>